<?xml version="1.0" encoding="utf-8"?>
<!-- Generator: Adobe Illustrator 24.3.0, SVG Export Plug-In . SVG Version: 6.00 Build 0)  -->
<svg version="1.1" id="Layer_1" xmlns="http://www.w3.org/2000/svg" xmlns:xlink="http://www.w3.org/1999/xlink" x="0px" y="0px"
	 viewBox="0 0 32 32" style="enable-background:new 0 0 32 32;" xml:space="preserve"  >
<style type="text/css">
	<!-- body.dark{ -->
		.st0{fill:none;stroke:#8d8d8d;stroke-width:0.72;stroke-linejoin:round;stroke-miterlimit:10;}
	<!-- } -->
	
</style>
<g id="Layer_1_1_">
</g>
<g id="Layer_1_2_">
</g>
<g id="Layer_1_3_">
</g>
<g id="Layer_1_4_">
</g>
<g id="Layer_1_5_">
</g>
<g id="cheese">
	<path id="cheese_1_" class="st0" d="M29,10v14H12c0-1.5-1-2.7-2.5-2.7C8.1,21.3,7,22.5,7,24H1v-4.8c1.8,0,3.3-1.6,3.3-3.5
		c0-1.9-1.5-3.5-3.3-3.5V10l8-4.2c0.6,0.9,1.5,1.6,2.7,1.6c1.8,0,3.3-1.5,3.3-3.3c0-0.4-0.1-0.8-0.2-1.2L20.5,0L22,0.9
		c2.9,1.8,5.2,4.7,6.6,7.8L29,10z M29,10H1 M12,13.5c-1.4,0-2.5,1.1-2.5,2.5s1.1,2.5,2.5,2.5s2.5-1.1,2.5-2.5S13.4,13.5,12,13.5z
		 M19.5,18.3c-0.7,0-1.2,0.6-1.2,1.2s0.6,1.2,1.2,1.2s1.2-0.6,1.2-1.2S20.2,18.3,19.5,18.3z M22,4.3c-0.7,0-1.2,0.6-1.2,1.2
		s0.6,1.2,1.2,1.2s1.2-0.6,1.2-1.2S22.7,4.3,22,4.3z M24.5,12.3c-1,0-1.8,0.8-1.8,1.8s0.8,1.8,1.8,1.8s1.8-0.8,1.8-1.8
		S25.5,12.3,24.5,12.3z"/>
</g>
</svg>
