<?xml version="1.0" encoding="utf-8"?>
<!-- Generator: Adobe Illustrator 24.3.0, SVG Export Plug-In . SVG Version: 6.00 Build 0)  -->
<svg version="1.1" id="Layer_1" xmlns="http://www.w3.org/2000/svg" xmlns:xlink="http://www.w3.org/1999/xlink" x="0px" y="0px"
	 viewBox="0 0 32 32" style="enable-background:new 0 0 32 32;" xml:space="preserve" >
<style type="text/css">
	.st0{fill:none;stroke:#8d8d8d;stroke-width:0.72;stroke-linecap:round;stroke-linejoin:round;stroke-miterlimit:10;}
	.st1{fill:none;stroke:#8d8d8d;stroke-width:0.72;stroke-linejoin:round;stroke-miterlimit:10;}
</style>
<g id="Layer_1_1_">
</g>
<g id="automobile">
	<g id="automobile_1_">
		<path id="Automotive_x2F_Transportation_01_1_" class="st0" d="M27,24.5H3c-1.1,0-2-0.9-2-2v-8c0-1.1,0.9-2,2-2h24
			c1.1,0,2,0.9,2,2v8C29,23.6,28.1,24.5,27,24.5z M2,24.5v4h3v-4 M25,24.5v4h3v-4 M6,15.5c-1.1,0-2,0.9-2,2s0.9,2,2,2s2-0.9,2-2
			S7.1,15.5,6,15.5z M24,15.5c-1.1,0-2,0.9-2,2s0.9,2,2,2s2-0.9,2-2S25.1,15.5,24,15.5z M27,12.5l-2.8-9.3c-0.1-0.4-0.5-0.7-1-0.7
			H6.7c-0.4,0-0.8,0.3-1,0.7L3,12.5 M5.5,4.5h19 M21,10.5l-3-4 M22,8.7L20,6"/>
		<path class="st1" d="M10,16.5h10 M10,18.5h10 M1,22.5h28 M2,10.5v-3 M28,10.5v-3"/>
	</g>
</g>
<g id="Layer_1_2_">
</g>
</svg>
